<mxfile host="app.diagrams.net" modified="2023-02-28T12:23:03.072Z" agent="5.0 (Windows NT 10.0; Win64; x64) AppleWebKit/537.36 (KHTML, like Gecko) Chrome/110.0.0.0 Safari/537.36" etag="VDmHNcFdkjlR9iKNhAhN" version="20.8.23" type="github">
  <diagram name="Страница 1" id="ttVVcNYs8KvwNzqufI2N">
    <mxGraphModel dx="2007" dy="877" grid="1" gridSize="10" guides="1" tooltips="1" connect="1" arrows="1" fold="1" page="1" pageScale="1" pageWidth="827" pageHeight="1169" math="0" shadow="0">
      <root>
        <mxCell id="0" />
        <mxCell id="1" parent="0" />
        <mxCell id="vroTIlIAZByKcSCYiW7v-6" style="edgeStyle=orthogonalEdgeStyle;rounded=0;orthogonalLoop=1;jettySize=auto;html=1;entryX=0.5;entryY=0;entryDx=0;entryDy=0;" edge="1" parent="1" source="vroTIlIAZByKcSCYiW7v-2" target="vroTIlIAZByKcSCYiW7v-4">
          <mxGeometry relative="1" as="geometry" />
        </mxCell>
        <mxCell id="vroTIlIAZByKcSCYiW7v-2" value="" style="rhombus;whiteSpace=wrap;html=1;" vertex="1" parent="1">
          <mxGeometry x="240" y="30" width="190" height="80" as="geometry" />
        </mxCell>
        <mxCell id="vroTIlIAZByKcSCYiW7v-3" value="Вы авторизованы?" style="text;html=1;strokeColor=none;fillColor=none;align=center;verticalAlign=middle;whiteSpace=wrap;rounded=0;" vertex="1" parent="1">
          <mxGeometry x="266.25" y="55" width="137.5" height="30" as="geometry" />
        </mxCell>
        <mxCell id="vroTIlIAZByKcSCYiW7v-9" style="edgeStyle=orthogonalEdgeStyle;rounded=0;orthogonalLoop=1;jettySize=auto;html=1;entryX=0.5;entryY=0;entryDx=0;entryDy=0;" edge="1" parent="1" source="vroTIlIAZByKcSCYiW7v-4" target="vroTIlIAZByKcSCYiW7v-8">
          <mxGeometry relative="1" as="geometry" />
        </mxCell>
        <mxCell id="vroTIlIAZByKcSCYiW7v-4" value="Ввести фамилию и имя" style="shape=parallelogram;perimeter=parallelogramPerimeter;whiteSpace=wrap;html=1;fixedSize=1;" vertex="1" parent="1">
          <mxGeometry x="10" y="130" width="200" height="40" as="geometry" />
        </mxCell>
        <mxCell id="vroTIlIAZByKcSCYiW7v-15" style="edgeStyle=orthogonalEdgeStyle;rounded=0;orthogonalLoop=1;jettySize=auto;html=1;exitX=0.5;exitY=1;exitDx=0;exitDy=0;entryX=0;entryY=0.5;entryDx=0;entryDy=0;" edge="1" parent="1" source="vroTIlIAZByKcSCYiW7v-8" target="vroTIlIAZByKcSCYiW7v-12">
          <mxGeometry relative="1" as="geometry" />
        </mxCell>
        <mxCell id="vroTIlIAZByKcSCYiW7v-8" value="Ввести преподаватель или студент" style="shape=parallelogram;perimeter=parallelogramPerimeter;whiteSpace=wrap;html=1;fixedSize=1;" vertex="1" parent="1">
          <mxGeometry x="-5" y="200" width="230" height="40" as="geometry" />
        </mxCell>
        <mxCell id="vroTIlIAZByKcSCYiW7v-11" value="Ввести преподаватель или студент" style="shape=parallelogram;perimeter=parallelogramPerimeter;whiteSpace=wrap;html=1;fixedSize=1;" vertex="1" parent="1">
          <mxGeometry x="-5" y="290" width="230" height="40" as="geometry" />
        </mxCell>
        <mxCell id="vroTIlIAZByKcSCYiW7v-13" style="edgeStyle=orthogonalEdgeStyle;rounded=0;orthogonalLoop=1;jettySize=auto;html=1;entryX=0.5;entryY=1;entryDx=0;entryDy=0;" edge="1" parent="1" source="vroTIlIAZByKcSCYiW7v-12" target="vroTIlIAZByKcSCYiW7v-2">
          <mxGeometry relative="1" as="geometry" />
        </mxCell>
        <mxCell id="vroTIlIAZByKcSCYiW7v-12" value="ОТМЕНА" style="rounded=0;whiteSpace=wrap;html=1;" vertex="1" parent="1">
          <mxGeometry x="290" y="250" width="90" height="30" as="geometry" />
        </mxCell>
        <mxCell id="vroTIlIAZByKcSCYiW7v-14" value="НЕТ" style="text;html=1;strokeColor=none;fillColor=none;align=center;verticalAlign=middle;whiteSpace=wrap;rounded=0;" vertex="1" parent="1">
          <mxGeometry x="180" y="40" width="60" height="30" as="geometry" />
        </mxCell>
      </root>
    </mxGraphModel>
  </diagram>
</mxfile>
